<mxfile host="app.diagrams.net" modified="2020-12-01T13:31:54.844Z" agent="5.0 (Windows NT 10.0; Win64; x64) AppleWebKit/537.36 (KHTML, like Gecko) Chrome/85.0.4183.83 Safari/537.36 Edg/85.0.564.44" etag="eo8v6LqWOYwamrI_3Xm_" version="13.10.3" type="github" pages="2">
  <diagram name="projet structure exemple" id="2c0d36ab-eaac-3732-788b-9136903baeff">
    <mxGraphModel dx="920" dy="428" grid="1" gridSize="10" guides="1" tooltips="1" connect="1" arrows="1" fold="1" page="1" pageScale="1.5" pageWidth="1169" pageHeight="827" background="#ffffff" math="0" shadow="0">
      <root>
        <mxCell id="0" />
        <mxCell id="1" parent="0" />
        <mxCell id="113" value="" style="fillColor=#10739E;strokeColor=none;opacity=30;" parent="1" vertex="1">
          <mxGeometry x="230" y="864.5" width="140" height="80" as="geometry" />
        </mxCell>
        <mxCell id="110" value="" style="fillColor=#12AAB5;strokeColor=none;opacity=30;" parent="1" vertex="1">
          <mxGeometry x="230" y="1137.87" width="920" height="80" as="geometry" />
        </mxCell>
        <mxCell id="2" value="outinfr_framyway" style="rounded=1;fillColor=#23445D;gradientColor=none;strokeColor=none;fontColor=#FFFFFF;fontStyle=1;fontFamily=Tahoma;fontSize=14" parent="1" vertex="1">
          <mxGeometry x="40" y="50" width="190" height="80" as="geometry" />
        </mxCell>
        <mxCell id="13" value="editiqueGcedoc" style="rounded=1;fillColor=#23445D;gradientColor=none;strokeColor=none;fontColor=#FFFFFF;fontStyle=1;fontFamily=Tahoma;fontSize=14" parent="1" vertex="1">
          <mxGeometry x="170" y="184.5" width="167" height="54.5" as="geometry" />
        </mxCell>
        <mxCell id="16" value="cd" style="rounded=1;fillColor=#23445D;gradientColor=none;strokeColor=none;fontColor=#FFFFFF;fontStyle=1;fontFamily=Tahoma;fontSize=14" parent="1" vertex="1">
          <mxGeometry x="240" y="264.5" width="130" height="60" as="geometry" />
        </mxCell>
        <mxCell id="17" value="filiale" style="rounded=1;fillColor=#23445D;gradientColor=none;strokeColor=none;fontColor=#FFFFFF;fontStyle=1;fontFamily=Tahoma;fontSize=14" parent="1" vertex="1">
          <mxGeometry x="240" y="870" width="130" height="60" as="geometry" />
        </mxCell>
        <mxCell id="18" value="mysys" style="rounded=1;fillColor=#23445D;gradientColor=none;strokeColor=none;fontColor=#FFFFFF;fontStyle=1;fontFamily=Tahoma;fontSize=14" parent="1" vertex="1">
          <mxGeometry x="240" y="1145.87" width="130" height="60" as="geometry" />
        </mxCell>
        <mxCell id="61" value="" style="edgeStyle=elbowEdgeStyle;elbow=vertical;strokeWidth=2;rounded=0" parent="1" source="2" target="13" edge="1">
          <mxGeometry x="-23" width="100" height="100" as="geometry">
            <mxPoint x="-23" y="100" as="sourcePoint" />
            <mxPoint x="77" as="targetPoint" />
          </mxGeometry>
        </mxCell>
        <mxCell id="64" value="" style="edgeStyle=elbowEdgeStyle;elbow=horizontal;strokeWidth=2;rounded=0" parent="1" source="13" target="16" edge="1">
          <mxGeometry x="-23" width="100" height="100" as="geometry">
            <mxPoint x="-23" y="100" as="sourcePoint" />
            <mxPoint x="77" as="targetPoint" />
            <Array as="points">
              <mxPoint x="202" y="300" />
            </Array>
          </mxGeometry>
        </mxCell>
        <mxCell id="65" value="" style="edgeStyle=elbowEdgeStyle;elbow=horizontal;strokeWidth=2;rounded=0" parent="1" source="13" target="17" edge="1">
          <mxGeometry x="-23" width="100" height="100" as="geometry">
            <mxPoint x="-23" y="100" as="sourcePoint" />
            <mxPoint x="77" as="targetPoint" />
            <Array as="points">
              <mxPoint x="202" y="340" />
            </Array>
          </mxGeometry>
        </mxCell>
        <mxCell id="69" value="" style="edgeStyle=elbowEdgeStyle;elbow=horizontal;strokeWidth=2;rounded=0;entryX=0;entryY=0.5;entryDx=0;entryDy=0;" parent="1" source="13" target="18" edge="1">
          <mxGeometry x="-23" width="100" height="100" as="geometry">
            <mxPoint x="-23" y="100" as="sourcePoint" />
            <mxPoint x="237" y="800" as="targetPoint" />
            <Array as="points">
              <mxPoint x="202" y="530" />
            </Array>
          </mxGeometry>
        </mxCell>
        <mxCell id="2Schw8FMMEN0JoN0j_tm-129" value="" style="edgeStyle=orthogonalEdgeStyle;rounded=0;orthogonalLoop=1;jettySize=auto;html=1;" edge="1" parent="1" source="2Schw8FMMEN0JoN0j_tm-127" target="2Schw8FMMEN0JoN0j_tm-128">
          <mxGeometry relative="1" as="geometry" />
        </mxCell>
        <mxCell id="2Schw8FMMEN0JoN0j_tm-127" value="OUTINFR" style="rounded=1;fillColor=#23445D;gradientColor=none;strokeColor=none;fontColor=#FFFFFF;fontStyle=1;fontFamily=Tahoma;fontSize=14" vertex="1" parent="1">
          <mxGeometry x="380" y="344.5" width="130" height="60" as="geometry" />
        </mxCell>
        <mxCell id="2Schw8FMMEN0JoN0j_tm-135" value="" style="edgeStyle=orthogonalEdgeStyle;rounded=0;orthogonalLoop=1;jettySize=auto;html=1;" edge="1" parent="1" source="2Schw8FMMEN0JoN0j_tm-128" target="2Schw8FMMEN0JoN0j_tm-134">
          <mxGeometry relative="1" as="geometry" />
        </mxCell>
        <mxCell id="2Schw8FMMEN0JoN0j_tm-128" value="FRAMYWAY" style="rounded=1;fillColor=#23445D;gradientColor=none;strokeColor=none;fontColor=#FFFFFF;fontStyle=1;fontFamily=Tahoma;fontSize=14" vertex="1" parent="1">
          <mxGeometry x="520" y="414.5" width="130" height="60" as="geometry" />
        </mxCell>
        <mxCell id="2Schw8FMMEN0JoN0j_tm-132" value="" style="edgeStyle=orthogonalEdgeStyle;rounded=0;orthogonalLoop=1;jettySize=auto;html=1;entryX=0.5;entryY=0;entryDx=0;entryDy=0;" edge="1" parent="1" source="16" target="2Schw8FMMEN0JoN0j_tm-127">
          <mxGeometry relative="1" as="geometry">
            <mxPoint x="390" y="337.5" as="sourcePoint" />
            <mxPoint x="440" y="442.75" as="targetPoint" />
          </mxGeometry>
        </mxCell>
        <mxCell id="2Schw8FMMEN0JoN0j_tm-137" value="" style="edgeStyle=orthogonalEdgeStyle;rounded=0;orthogonalLoop=1;jettySize=auto;html=1;" edge="1" parent="1" source="2Schw8FMMEN0JoN0j_tm-134" target="2Schw8FMMEN0JoN0j_tm-136">
          <mxGeometry relative="1" as="geometry" />
        </mxCell>
        <mxCell id="2Schw8FMMEN0JoN0j_tm-134" value="FRMYWCLI" style="rounded=1;fillColor=#23445D;gradientColor=none;strokeColor=none;fontColor=#FFFFFF;fontStyle=1;fontFamily=Tahoma;fontSize=14" vertex="1" parent="1">
          <mxGeometry x="660" y="484.5" width="130" height="60" as="geometry" />
        </mxCell>
        <mxCell id="2Schw8FMMEN0JoN0j_tm-136" value="documents" style="rounded=1;fillColor=#23445D;gradientColor=none;strokeColor=none;fontColor=#FFFFFF;fontStyle=1;fontFamily=Tahoma;fontSize=14" vertex="1" parent="1">
          <mxGeometry x="800" y="564.5" width="130" height="60" as="geometry" />
        </mxCell>
        <mxCell id="2Schw8FMMEN0JoN0j_tm-138" value="SIBGCE_OffreClient.docx" style="shape=document;whiteSpace=wrap;html=1;boundedLbl=1;rounded=1;fontFamily=Tahoma;fontSize=9;fontColor=#FFFFFF;fontStyle=1;strokeColor=none;fillColor=#23445D;verticalAlign=top;" vertex="1" parent="1">
          <mxGeometry x="958" y="634.5" width="160" height="44.5" as="geometry" />
        </mxCell>
        <mxCell id="2Schw8FMMEN0JoN0j_tm-141" value="siprge_opposition_OppoCarte.docx" style="shape=document;boundedLbl=1;rounded=1;fontFamily=Tahoma;fontSize=9;fontColor=#FFFFFF;fontStyle=1;strokeColor=none;fillColor=#23445D;labelPosition=center;verticalLabelPosition=middle;align=center;verticalAlign=top;whiteSpace=wrap;html=1;" vertex="1" parent="1">
          <mxGeometry x="958" y="774.5" width="160" height="54.5" as="geometry" />
        </mxCell>
        <mxCell id="2Schw8FMMEN0JoN0j_tm-140" value="siprge_borderau_BORD001.docx" style="shape=document;boundedLbl=1;rounded=1;fontFamily=Tahoma;fontSize=9;fontColor=#FFFFFF;fontStyle=1;strokeColor=none;fillColor=#23445D;labelPosition=center;verticalLabelPosition=middle;align=center;verticalAlign=top;whiteSpace=wrap;html=1;" vertex="1" parent="1">
          <mxGeometry x="959" y="704.5" width="160" height="54.5" as="geometry" />
        </mxCell>
        <mxCell id="2Schw8FMMEN0JoN0j_tm-149" value="" style="edgeStyle=elbowEdgeStyle;elbow=horizontal;strokeWidth=2;rounded=0;entryX=0;entryY=0.5;entryDx=0;entryDy=0;exitX=0.5;exitY=1;exitDx=0;exitDy=0;" edge="1" parent="1" source="2Schw8FMMEN0JoN0j_tm-136" target="2Schw8FMMEN0JoN0j_tm-140">
          <mxGeometry x="515" y="-35.5" width="100" height="100" as="geometry">
            <mxPoint x="740" y="774.5" as="sourcePoint" />
            <mxPoint x="838" y="959" as="targetPoint" />
            <Array as="points">
              <mxPoint x="865" y="674.5" />
            </Array>
          </mxGeometry>
        </mxCell>
        <mxCell id="2Schw8FMMEN0JoN0j_tm-150" value="" style="edgeStyle=elbowEdgeStyle;elbow=horizontal;strokeWidth=2;rounded=0;entryX=0;entryY=0.5;entryDx=0;entryDy=0;exitX=0.5;exitY=1;exitDx=0;exitDy=0;" edge="1" parent="1" source="2Schw8FMMEN0JoN0j_tm-136" target="2Schw8FMMEN0JoN0j_tm-138">
          <mxGeometry x="515" y="-115.5" width="100" height="100" as="geometry">
            <mxPoint x="865" y="544.5" as="sourcePoint" />
            <mxPoint x="950" y="651.75" as="targetPoint" />
            <Array as="points">
              <mxPoint x="865" y="594.5" />
            </Array>
          </mxGeometry>
        </mxCell>
        <mxCell id="2Schw8FMMEN0JoN0j_tm-152" value="" style="edgeStyle=elbowEdgeStyle;elbow=horizontal;strokeWidth=2;rounded=0;entryX=0;entryY=0.5;entryDx=0;entryDy=0;exitX=0.5;exitY=1;exitDx=0;exitDy=0;" edge="1" parent="1" source="2Schw8FMMEN0JoN0j_tm-136" target="2Schw8FMMEN0JoN0j_tm-141">
          <mxGeometry x="525" y="-25.5" width="100" height="100" as="geometry">
            <mxPoint x="875" y="634.5" as="sourcePoint" />
            <mxPoint x="960" y="741.75" as="targetPoint" />
            <Array as="points">
              <mxPoint x="865" y="774.5" />
            </Array>
          </mxGeometry>
        </mxCell>
        <mxCell id="2Schw8FMMEN0JoN0j_tm-153" value="" style="fillColor=#d0cee2;strokeColor=#56517e;opacity=30;" vertex="1" parent="1">
          <mxGeometry x="230" y="254.5" width="920" height="584.5" as="geometry" />
        </mxCell>
        <mxCell id="2Schw8FMMEN0JoN0j_tm-171" value="" style="group;fillColor=#10739E;container=0;opacity=30;strokeWidth=1;" vertex="1" connectable="0" parent="1">
          <mxGeometry x="370" y="864.5" width="780" height="240" as="geometry" />
        </mxCell>
        <mxCell id="2Schw8FMMEN0JoN0j_tm-157" value="OUTINFR" style="rounded=1;fillColor=#23445D;gradientColor=none;strokeColor=none;fontColor=#FFFFFF;fontStyle=1;fontFamily=Tahoma;fontSize=14" vertex="1" parent="1">
          <mxGeometry x="445.4945054945056" y="901.3673718470302" width="91.42857142857142" height="23.433685923515057" as="geometry" />
        </mxCell>
        <mxCell id="2Schw8FMMEN0JoN0j_tm-159" value="FRAMYWAY" style="rounded=1;fillColor=#23445D;gradientColor=none;strokeColor=none;fontColor=#FFFFFF;fontStyle=1;fontFamily=Tahoma;fontSize=14" vertex="1" parent="1">
          <mxGeometry x="543.9560439560439" y="928.7066720911309" width="91.42857142857142" height="23.433685923515057" as="geometry" />
        </mxCell>
        <mxCell id="2Schw8FMMEN0JoN0j_tm-156" value="" style="edgeStyle=orthogonalEdgeStyle;rounded=0;orthogonalLoop=1;jettySize=auto;html=1;" edge="1" parent="1" source="2Schw8FMMEN0JoN0j_tm-157" target="2Schw8FMMEN0JoN0j_tm-159">
          <mxGeometry x="340" y="854.5" as="geometry">
            <Array as="points">
              <mxPoint x="557" y="913" />
              <mxPoint x="557" y="909" />
              <mxPoint x="590" y="909" />
            </Array>
          </mxGeometry>
        </mxCell>
        <mxCell id="2Schw8FMMEN0JoN0j_tm-160" value="" style="edgeStyle=orthogonalEdgeStyle;rounded=0;orthogonalLoop=1;jettySize=auto;html=1;entryX=0.5;entryY=0;entryDx=0;entryDy=0;exitX=1;exitY=0.25;exitDx=0;exitDy=0;" edge="1" parent="1" source="17" target="2Schw8FMMEN0JoN0j_tm-157">
          <mxGeometry x="340" y="854.5" as="geometry">
            <mxPoint x="438.4615384615381" y="881.8333333333335" as="sourcePoint" />
            <mxPoint x="487.6923076923076" y="939.7400325467861" as="targetPoint" />
            <Array as="points">
              <mxPoint x="491" y="885" />
            </Array>
          </mxGeometry>
        </mxCell>
        <mxCell id="2Schw8FMMEN0JoN0j_tm-162" value="FRMYWCLI" style="rounded=1;fillColor=#23445D;gradientColor=none;strokeColor=none;fontColor=#FFFFFF;fontStyle=1;fontFamily=Tahoma;fontSize=14" vertex="1" parent="1">
          <mxGeometry x="642.4175824175823" y="956.0459723352319" width="91.42857142857142" height="23.433685923515057" as="geometry" />
        </mxCell>
        <mxCell id="2Schw8FMMEN0JoN0j_tm-158" value="" style="edgeStyle=orthogonalEdgeStyle;rounded=0;orthogonalLoop=1;jettySize=auto;html=1;" edge="1" parent="1" source="2Schw8FMMEN0JoN0j_tm-159" target="2Schw8FMMEN0JoN0j_tm-162">
          <mxGeometry x="340" y="854.5" as="geometry" />
        </mxCell>
        <mxCell id="2Schw8FMMEN0JoN0j_tm-163" value="documents" style="rounded=1;fillColor=#23445D;gradientColor=none;strokeColor=none;fontColor=#FFFFFF;fontStyle=1;fontFamily=Tahoma;fontSize=14" vertex="1" parent="1">
          <mxGeometry x="740.8791208791208" y="987.2908868999186" width="91.42857142857142" height="23.433685923515057" as="geometry" />
        </mxCell>
        <mxCell id="2Schw8FMMEN0JoN0j_tm-161" value="" style="edgeStyle=orthogonalEdgeStyle;rounded=0;orthogonalLoop=1;jettySize=auto;html=1;" edge="1" parent="1" source="2Schw8FMMEN0JoN0j_tm-162" target="2Schw8FMMEN0JoN0j_tm-163">
          <mxGeometry x="340" y="854.5" as="geometry" />
        </mxCell>
        <mxCell id="2Schw8FMMEN0JoN0j_tm-164" value="SIBGCE_OffreClient.docx" style="shape=document;whiteSpace=wrap;html=1;boundedLbl=1;rounded=1;fontFamily=Tahoma;fontSize=9;fontColor=#FFFFFF;fontStyle=1;strokeColor=none;fillColor=#23445D;verticalAlign=top;" vertex="1" parent="1">
          <mxGeometry x="852" y="1014.63" width="188" height="17.38" as="geometry" />
        </mxCell>
        <mxCell id="2Schw8FMMEN0JoN0j_tm-165" value="siprge_opposition_OppoCarte.docx" style="shape=document;boundedLbl=1;rounded=1;fontFamily=Tahoma;fontSize=9;fontColor=#FFFFFF;fontStyle=1;strokeColor=none;fillColor=#23445D;labelPosition=center;verticalLabelPosition=middle;align=center;verticalAlign=top;whiteSpace=wrap;html=1;" vertex="1" parent="1">
          <mxGeometry x="852" y="1069.31" width="188" height="21.29" as="geometry" />
        </mxCell>
        <mxCell id="2Schw8FMMEN0JoN0j_tm-166" value="siprge_borderau_BORD001.docx" style="shape=document;boundedLbl=1;rounded=1;fontFamily=Tahoma;fontSize=9;fontColor=#FFFFFF;fontStyle=1;strokeColor=none;fillColor=#23445D;labelPosition=center;verticalLabelPosition=middle;align=center;verticalAlign=top;whiteSpace=wrap;html=1;" vertex="1" parent="1">
          <mxGeometry x="852.7" y="1041.97" width="187.3" height="21.29" as="geometry" />
        </mxCell>
        <mxCell id="2Schw8FMMEN0JoN0j_tm-167" value="" style="edgeStyle=elbowEdgeStyle;elbow=horizontal;strokeWidth=2;rounded=0;entryX=0;entryY=0.5;entryDx=0;entryDy=0;exitX=0.5;exitY=1;exitDx=0;exitDy=0;" edge="1" parent="1" source="2Schw8FMMEN0JoN0j_tm-163" target="2Schw8FMMEN0JoN0j_tm-166">
          <mxGeometry x="540.4395604395604" y="752.9540276647681" width="70.32967032967031" height="39.05614320585843" as="geometry">
            <mxPoint x="698.6813186813185" y="1069.3087876322213" as="sourcePoint" />
            <mxPoint x="767.6043956043954" y="1141.3673718470302" as="targetPoint" />
            <Array as="points">
              <mxPoint x="786.5934065934066" y="1030.252644426363" />
            </Array>
          </mxGeometry>
        </mxCell>
        <mxCell id="2Schw8FMMEN0JoN0j_tm-168" value="" style="edgeStyle=elbowEdgeStyle;elbow=horizontal;strokeWidth=2;rounded=0;entryX=0;entryY=0.5;entryDx=0;entryDy=0;exitX=0.5;exitY=1;exitDx=0;exitDy=0;" edge="1" parent="1" source="2Schw8FMMEN0JoN0j_tm-163" target="2Schw8FMMEN0JoN0j_tm-164">
          <mxGeometry x="540.4395604395604" y="721.7091131000814" width="70.32967032967031" height="39.05614320585843" as="geometry">
            <mxPoint x="786.5934065934066" y="979.4796582587469" as="sourcePoint" />
            <mxPoint x="846.3736263736264" y="1021.3673718470302" as="targetPoint" />
            <Array as="points">
              <mxPoint x="786.5934065934066" y="999.0077298616761" />
            </Array>
          </mxGeometry>
        </mxCell>
        <mxCell id="2Schw8FMMEN0JoN0j_tm-169" value="" style="edgeStyle=elbowEdgeStyle;elbow=horizontal;strokeWidth=2;rounded=0;entryX=0;entryY=0.5;entryDx=0;entryDy=0;exitX=0.5;exitY=1;exitDx=0;exitDy=0;" edge="1" parent="1" source="2Schw8FMMEN0JoN0j_tm-163" target="2Schw8FMMEN0JoN0j_tm-165">
          <mxGeometry x="547.4725274725274" y="756.8596419853538" width="70.32967032967031" height="39.05614320585843" as="geometry">
            <mxPoint x="793.6263736263736" y="1014.6301871440196" as="sourcePoint" />
            <mxPoint x="853.4065934065934" y="1056.5179007323027" as="targetPoint" />
            <Array as="points">
              <mxPoint x="786.5934065934066" y="1069.3087876322213" />
            </Array>
          </mxGeometry>
        </mxCell>
      </root>
    </mxGraphModel>
  </diagram>
  <diagram id="zpJKlpQ8qlUPHsH3YmIc" name="git flow 3 branches">
    <mxGraphModel dx="1185" dy="603" grid="1" gridSize="10" guides="1" tooltips="1" connect="1" arrows="1" fold="1" page="1" pageScale="1" pageWidth="1169" pageHeight="827" math="0" shadow="0">
      <root>
        <mxCell id="_lwCmBiX-WVCBk8Of-Vi-0" />
        <mxCell id="_lwCmBiX-WVCBk8Of-Vi-1" parent="_lwCmBiX-WVCBk8Of-Vi-0" />
        <mxCell id="_lwCmBiX-WVCBk8Of-Vi-2" value="" style="edgeStyle=orthogonalEdgeStyle;orthogonalLoop=1;jettySize=auto;html=1;dashed=1;startFill=0;endArrow=none;endFill=0;strokeColor=#6c8ebf;fillColor=#dae8fc;" edge="1" parent="_lwCmBiX-WVCBk8Of-Vi-1" source="_lwCmBiX-WVCBk8Of-Vi-4" target="_lwCmBiX-WVCBk8Of-Vi-6">
          <mxGeometry relative="1" as="geometry" />
        </mxCell>
        <mxCell id="_lwCmBiX-WVCBk8Of-Vi-3" style="edgeStyle=orthogonalEdgeStyle;orthogonalLoop=1;jettySize=auto;html=1;entryX=0;entryY=0.5;entryDx=0;entryDy=0;dashed=1;startFill=0;endArrow=none;endFill=0;strokeColor=#6c8ebf;fillColor=#dae8fc;exitX=1;exitY=1;exitDx=0;exitDy=0;" edge="1" parent="_lwCmBiX-WVCBk8Of-Vi-1" source="_lwCmBiX-WVCBk8Of-Vi-4" target="_lwCmBiX-WVCBk8Of-Vi-11">
          <mxGeometry relative="1" as="geometry">
            <Array as="points">
              <mxPoint x="116" y="296" />
            </Array>
          </mxGeometry>
        </mxCell>
        <mxCell id="_lwCmBiX-WVCBk8Of-Vi-4" value="1.0.0" style="ellipse;whiteSpace=wrap;html=1;aspect=fixed;fillColor=#dae8fc;strokeColor=#6c8ebf;labelPosition=center;verticalLabelPosition=top;align=center;verticalAlign=bottom;" vertex="1" parent="_lwCmBiX-WVCBk8Of-Vi-1">
          <mxGeometry x="90" y="200" width="30" height="30" as="geometry" />
        </mxCell>
        <mxCell id="_lwCmBiX-WVCBk8Of-Vi-5" value="" style="edgeStyle=orthogonalEdgeStyle;orthogonalLoop=1;jettySize=auto;html=1;dashed=1;startFill=0;endArrow=none;endFill=0;strokeColor=#6c8ebf;fillColor=#dae8fc;" edge="1" parent="_lwCmBiX-WVCBk8Of-Vi-1" source="_lwCmBiX-WVCBk8Of-Vi-31" target="_lwCmBiX-WVCBk8Of-Vi-8">
          <mxGeometry relative="1" as="geometry" />
        </mxCell>
        <mxCell id="_lwCmBiX-WVCBk8Of-Vi-6" value="1.1.0" style="ellipse;whiteSpace=wrap;html=1;aspect=fixed;fillColor=#dae8fc;strokeColor=#6c8ebf;labelPosition=center;verticalLabelPosition=top;align=center;verticalAlign=bottom;" vertex="1" parent="_lwCmBiX-WVCBk8Of-Vi-1">
          <mxGeometry x="200" y="200" width="30" height="30" as="geometry" />
        </mxCell>
        <mxCell id="_lwCmBiX-WVCBk8Of-Vi-7" value="" style="edgeStyle=orthogonalEdgeStyle;orthogonalLoop=1;jettySize=auto;html=1;dashed=1;startFill=0;endArrow=none;endFill=0;strokeColor=#6c8ebf;fillColor=#dae8fc;" edge="1" parent="_lwCmBiX-WVCBk8Of-Vi-1" source="_lwCmBiX-WVCBk8Of-Vi-43" target="_lwCmBiX-WVCBk8Of-Vi-9">
          <mxGeometry relative="1" as="geometry" />
        </mxCell>
        <mxCell id="_lwCmBiX-WVCBk8Of-Vi-8" value="1.2.1" style="ellipse;whiteSpace=wrap;html=1;aspect=fixed;fillColor=#dae8fc;strokeColor=#6c8ebf;labelPosition=right;verticalLabelPosition=top;align=left;verticalAlign=bottom;" vertex="1" parent="_lwCmBiX-WVCBk8Of-Vi-1">
          <mxGeometry x="420" y="200" width="30" height="30" as="geometry" />
        </mxCell>
        <mxCell id="_lwCmBiX-WVCBk8Of-Vi-9" value="develop" style="rounded=0;whiteSpace=wrap;html=1;fontFamily=Helvetica;fontSize=12;fontColor=#000000;align=center;strokeColor=#6c8ebf;fillColor=#dae8fc;" vertex="1" parent="_lwCmBiX-WVCBk8Of-Vi-1">
          <mxGeometry x="780" y="200" width="110" height="30" as="geometry" />
        </mxCell>
        <mxCell id="_lwCmBiX-WVCBk8Of-Vi-30" value="" style="edgeStyle=orthogonalEdgeStyle;orthogonalLoop=1;jettySize=auto;html=1;dashed=1;startFill=0;endArrow=none;endFill=0;strokeColor=#6c8ebf;fillColor=#dae8fc;exitX=1;exitY=1;exitDx=0;exitDy=0;" edge="1" parent="_lwCmBiX-WVCBk8Of-Vi-1" source="_lwCmBiX-WVCBk8Of-Vi-6" target="_lwCmBiX-WVCBk8Of-Vi-29">
          <mxGeometry relative="1" as="geometry">
            <mxPoint x="220" y="230" as="sourcePoint" />
            <Array as="points">
              <mxPoint x="226" y="296" />
            </Array>
          </mxGeometry>
        </mxCell>
        <mxCell id="_lwCmBiX-WVCBk8Of-Vi-11" value="release/1.1.0" style="ellipse;whiteSpace=wrap;html=1;aspect=fixed;fillColor=#e1d5e7;strokeColor=#9673a6;labelPosition=center;verticalLabelPosition=top;align=center;verticalAlign=bottom;fontColor=#9673A6;" vertex="1" parent="_lwCmBiX-WVCBk8Of-Vi-1">
          <mxGeometry x="144" y="281" width="30" height="30" as="geometry" />
        </mxCell>
        <mxCell id="_lwCmBiX-WVCBk8Of-Vi-14" value="PR" style="edgeStyle=orthogonalEdgeStyle;orthogonalLoop=1;jettySize=auto;html=1;exitX=1;exitY=0.5;exitDx=0;exitDy=0;dashed=1;startFill=0;endArrow=none;endFill=0;strokeColor=#6c8ebf;fillColor=#dae8fc;entryX=0;entryY=1;entryDx=0;entryDy=0;fontColor=#9673A6;" edge="1" parent="_lwCmBiX-WVCBk8Of-Vi-1" source="_lwCmBiX-WVCBk8Of-Vi-11" target="_lwCmBiX-WVCBk8Of-Vi-6">
          <mxGeometry x="0.7143" relative="1" as="geometry">
            <mxPoint x="420" y="296" as="sourcePoint" />
            <mxPoint x="230" y="250" as="targetPoint" />
            <Array as="points">
              <mxPoint x="204" y="296" />
            </Array>
            <mxPoint as="offset" />
          </mxGeometry>
        </mxCell>
        <mxCell id="_lwCmBiX-WVCBk8Of-Vi-19" value="" style="edgeStyle=orthogonalEdgeStyle;orthogonalLoop=1;jettySize=auto;html=1;dashed=1;startFill=0;endArrow=none;endFill=0;strokeColor=#6c8ebf;fillColor=#dae8fc;entryX=0;entryY=0.5;entryDx=0;entryDy=0;" edge="1" parent="_lwCmBiX-WVCBk8Of-Vi-1" target="_lwCmBiX-WVCBk8Of-Vi-18">
          <mxGeometry relative="1" as="geometry">
            <mxPoint x="640" y="296" as="sourcePoint" />
          </mxGeometry>
        </mxCell>
        <mxCell id="_lwCmBiX-WVCBk8Of-Vi-18" value="release" style="whiteSpace=wrap;html=1;verticalAlign=middle;strokeColor=#9673a6;fillColor=#e1d5e7;" vertex="1" parent="_lwCmBiX-WVCBk8Of-Vi-1">
          <mxGeometry x="780" y="281" width="110" height="30" as="geometry" />
        </mxCell>
        <mxCell id="_lwCmBiX-WVCBk8Of-Vi-21" value="PR" style="edgeStyle=orthogonalEdgeStyle;orthogonalLoop=1;jettySize=auto;html=1;dashed=1;startFill=0;endArrow=none;endFill=0;strokeColor=#b85450;fillColor=#f8cecc;entryX=0;entryY=0;entryDx=0;entryDy=0;fontColor=#B85450;" edge="1" parent="_lwCmBiX-WVCBk8Of-Vi-1" source="_lwCmBiX-WVCBk8Of-Vi-22" target="_lwCmBiX-WVCBk8Of-Vi-8">
          <mxGeometry x="0.2818" relative="1" as="geometry">
            <mxPoint x="450" y="220" as="targetPoint" />
            <mxPoint as="offset" />
          </mxGeometry>
        </mxCell>
        <mxCell id="_lwCmBiX-WVCBk8Of-Vi-36" style="edgeStyle=orthogonalEdgeStyle;orthogonalLoop=1;jettySize=auto;html=1;dashed=1;startFill=0;endArrow=none;endFill=0;strokeColor=#b85450;fillColor=#f8cecc;entryX=1;entryY=0;entryDx=0;entryDy=0;" edge="1" parent="_lwCmBiX-WVCBk8Of-Vi-1" source="_lwCmBiX-WVCBk8Of-Vi-22" target="_lwCmBiX-WVCBk8Of-Vi-31">
          <mxGeometry relative="1" as="geometry" />
        </mxCell>
        <mxCell id="_lwCmBiX-WVCBk8Of-Vi-22" value="hotfix/1.2.1" style="ellipse;whiteSpace=wrap;html=1;aspect=fixed;fillColor=#f8cecc;labelPosition=center;verticalLabelPosition=top;align=center;verticalAlign=bottom;strokeColor=#B85450;fontColor=#B85450;" vertex="1" parent="_lwCmBiX-WVCBk8Of-Vi-1">
          <mxGeometry x="369" y="119" width="30" height="30" as="geometry" />
        </mxCell>
        <mxCell id="_lwCmBiX-WVCBk8Of-Vi-25" value="" style="edgeStyle=orthogonalEdgeStyle;orthogonalLoop=1;jettySize=auto;html=1;dashed=1;startFill=0;endArrow=none;endFill=0;strokeColor=#b85450;fillColor=#f8cecc;" edge="1" parent="_lwCmBiX-WVCBk8Of-Vi-1" target="_lwCmBiX-WVCBk8Of-Vi-27">
          <mxGeometry relative="1" as="geometry">
            <mxPoint x="640" y="136" as="sourcePoint" />
          </mxGeometry>
        </mxCell>
        <mxCell id="_lwCmBiX-WVCBk8Of-Vi-27" value="hotfix" style="whiteSpace=wrap;html=1;verticalAlign=middle;strokeColor=#b85450;fillColor=#f8cecc;" vertex="1" parent="_lwCmBiX-WVCBk8Of-Vi-1">
          <mxGeometry x="780" y="121" width="110" height="30" as="geometry" />
        </mxCell>
        <mxCell id="_lwCmBiX-WVCBk8Of-Vi-33" value="PR" style="edgeStyle=orthogonalEdgeStyle;orthogonalLoop=1;jettySize=auto;html=1;entryX=0;entryY=1;entryDx=0;entryDy=0;dashed=1;startFill=0;endArrow=none;endFill=0;strokeColor=#6c8ebf;fillColor=#dae8fc;fontColor=#9673A6;" edge="1" parent="_lwCmBiX-WVCBk8Of-Vi-1" source="_lwCmBiX-WVCBk8Of-Vi-29" target="_lwCmBiX-WVCBk8Of-Vi-31">
          <mxGeometry x="0.7226" relative="1" as="geometry">
            <mxPoint as="offset" />
          </mxGeometry>
        </mxCell>
        <mxCell id="_lwCmBiX-WVCBk8Of-Vi-29" value="release/1.2.0" style="ellipse;whiteSpace=wrap;html=1;aspect=fixed;fillColor=#e1d5e7;strokeColor=#9673a6;labelPosition=center;verticalLabelPosition=top;align=center;verticalAlign=bottom;fontColor=#9673A6;" vertex="1" parent="_lwCmBiX-WVCBk8Of-Vi-1">
          <mxGeometry x="261" y="281" width="30" height="30" as="geometry" />
        </mxCell>
        <mxCell id="_lwCmBiX-WVCBk8Of-Vi-31" value="1.2.0" style="ellipse;whiteSpace=wrap;html=1;aspect=fixed;fillColor=#dae8fc;strokeColor=#6c8ebf;labelPosition=left;verticalLabelPosition=top;align=right;verticalAlign=bottom;" vertex="1" parent="_lwCmBiX-WVCBk8Of-Vi-1">
          <mxGeometry x="320" y="200" width="30" height="30" as="geometry" />
        </mxCell>
        <mxCell id="_lwCmBiX-WVCBk8Of-Vi-32" value="" style="edgeStyle=orthogonalEdgeStyle;orthogonalLoop=1;jettySize=auto;html=1;dashed=1;startFill=0;endArrow=none;endFill=0;strokeColor=#6c8ebf;fillColor=#dae8fc;" edge="1" parent="_lwCmBiX-WVCBk8Of-Vi-1" source="_lwCmBiX-WVCBk8Of-Vi-6" target="_lwCmBiX-WVCBk8Of-Vi-31">
          <mxGeometry relative="1" as="geometry">
            <mxPoint x="230" y="215" as="sourcePoint" />
            <mxPoint x="560" y="215" as="targetPoint" />
          </mxGeometry>
        </mxCell>
        <mxCell id="_lwCmBiX-WVCBk8Of-Vi-35" style="edgeStyle=orthogonalEdgeStyle;orthogonalLoop=1;jettySize=auto;html=1;entryX=1;entryY=1;entryDx=0;entryDy=0;dashed=1;startFill=0;endArrow=none;endFill=0;fillColor=#dae8fc;strokeColor=#6C8EBF;" edge="1" parent="_lwCmBiX-WVCBk8Of-Vi-1" source="_lwCmBiX-WVCBk8Of-Vi-34" target="_lwCmBiX-WVCBk8Of-Vi-31">
          <mxGeometry relative="1" as="geometry" />
        </mxCell>
        <mxCell id="_lwCmBiX-WVCBk8Of-Vi-38" value="" style="edgeStyle=orthogonalEdgeStyle;orthogonalLoop=1;jettySize=auto;html=1;dashed=1;startFill=0;endArrow=none;endFill=0;fillColor=#f8cecc;fontColor=#B85450;strokeColor=#6C8EBF;" edge="1" parent="_lwCmBiX-WVCBk8Of-Vi-1" source="_lwCmBiX-WVCBk8Of-Vi-34" target="_lwCmBiX-WVCBk8Of-Vi-37">
          <mxGeometry relative="1" as="geometry" />
        </mxCell>
        <mxCell id="_lwCmBiX-WVCBk8Of-Vi-34" value="release/1.3.0" style="ellipse;whiteSpace=wrap;html=1;aspect=fixed;fillColor=#e1d5e7;strokeColor=#9673a6;labelPosition=center;verticalLabelPosition=top;align=center;verticalAlign=bottom;fontColor=#9673A6;" vertex="1" parent="_lwCmBiX-WVCBk8Of-Vi-1">
          <mxGeometry x="380" y="281" width="30" height="30" as="geometry" />
        </mxCell>
        <mxCell id="_lwCmBiX-WVCBk8Of-Vi-40" value="" style="edgeStyle=orthogonalEdgeStyle;orthogonalLoop=1;jettySize=auto;html=1;dashed=1;startFill=0;endArrow=none;endFill=0;fillColor=#f8cecc;fontColor=#B85450;strokeColor=#6C8EBF;" edge="1" parent="_lwCmBiX-WVCBk8Of-Vi-1" source="_lwCmBiX-WVCBk8Of-Vi-37" target="_lwCmBiX-WVCBk8Of-Vi-39">
          <mxGeometry relative="1" as="geometry" />
        </mxCell>
        <mxCell id="_lwCmBiX-WVCBk8Of-Vi-45" value="merge" style="edgeStyle=orthogonalEdgeStyle;orthogonalLoop=1;jettySize=auto;html=1;dashed=1;startFill=0;endArrow=none;endFill=0;fillColor=#dae8fc;strokeColor=#6C8EBF;fontColor=#6C8EBF;" edge="1" parent="_lwCmBiX-WVCBk8Of-Vi-1" source="_lwCmBiX-WVCBk8Of-Vi-37" target="_lwCmBiX-WVCBk8Of-Vi-8">
          <mxGeometry relative="1" as="geometry" />
        </mxCell>
        <mxCell id="_lwCmBiX-WVCBk8Of-Vi-37" value="" style="ellipse;whiteSpace=wrap;html=1;aspect=fixed;fillColor=#e1d5e7;strokeColor=#9673a6;labelPosition=center;verticalLabelPosition=top;align=center;verticalAlign=bottom;fontColor=#9673A6;" vertex="1" parent="_lwCmBiX-WVCBk8Of-Vi-1">
          <mxGeometry x="450" y="281" width="30" height="30" as="geometry" />
        </mxCell>
        <mxCell id="_lwCmBiX-WVCBk8Of-Vi-46" value="PR" style="edgeStyle=orthogonalEdgeStyle;orthogonalLoop=1;jettySize=auto;html=1;entryX=0;entryY=1;entryDx=0;entryDy=0;dashed=1;startFill=0;endArrow=none;endFill=0;strokeColor=#6c8ebf;fillColor=#dae8fc;fontColor=#9673A6;" edge="1" parent="_lwCmBiX-WVCBk8Of-Vi-1" source="_lwCmBiX-WVCBk8Of-Vi-39" target="_lwCmBiX-WVCBk8Of-Vi-43">
          <mxGeometry x="0.6963" relative="1" as="geometry">
            <mxPoint as="offset" />
          </mxGeometry>
        </mxCell>
        <mxCell id="_lwCmBiX-WVCBk8Of-Vi-39" value="release/1.3.0" style="ellipse;whiteSpace=wrap;html=1;aspect=fixed;fillColor=#e1d5e7;strokeColor=#9673a6;labelPosition=center;verticalLabelPosition=top;align=center;verticalAlign=bottom;fontColor=#9673A6;" vertex="1" parent="_lwCmBiX-WVCBk8Of-Vi-1">
          <mxGeometry x="520" y="281" width="30" height="30" as="geometry" />
        </mxCell>
        <mxCell id="_lwCmBiX-WVCBk8Of-Vi-43" value="1.3.0" style="ellipse;whiteSpace=wrap;html=1;aspect=fixed;fillColor=#dae8fc;strokeColor=#6c8ebf;labelPosition=right;verticalLabelPosition=top;align=left;verticalAlign=bottom;" vertex="1" parent="_lwCmBiX-WVCBk8Of-Vi-1">
          <mxGeometry x="570" y="200" width="30" height="30" as="geometry" />
        </mxCell>
        <mxCell id="_lwCmBiX-WVCBk8Of-Vi-44" value="" style="edgeStyle=orthogonalEdgeStyle;orthogonalLoop=1;jettySize=auto;html=1;dashed=1;startFill=0;endArrow=none;endFill=0;strokeColor=#6c8ebf;fillColor=#dae8fc;" edge="1" parent="_lwCmBiX-WVCBk8Of-Vi-1" source="_lwCmBiX-WVCBk8Of-Vi-8" target="_lwCmBiX-WVCBk8Of-Vi-43">
          <mxGeometry relative="1" as="geometry">
            <mxPoint x="450" y="215" as="sourcePoint" />
            <mxPoint x="1000" y="215" as="targetPoint" />
          </mxGeometry>
        </mxCell>
        <mxCell id="_lwCmBiX-WVCBk8Of-Vi-47" value="" style="edgeStyle=orthogonalEdgeStyle;orthogonalLoop=1;jettySize=auto;html=1;dashed=1;startFill=0;endArrow=none;endFill=0;strokeColor=#6c8ebf;fillColor=#dae8fc;" edge="1" source="_lwCmBiX-WVCBk8Of-Vi-49" target="_lwCmBiX-WVCBk8Of-Vi-51" parent="_lwCmBiX-WVCBk8Of-Vi-1">
          <mxGeometry relative="1" as="geometry" />
        </mxCell>
        <mxCell id="_lwCmBiX-WVCBk8Of-Vi-48" style="edgeStyle=orthogonalEdgeStyle;orthogonalLoop=1;jettySize=auto;html=1;entryX=0;entryY=0.5;entryDx=0;entryDy=0;dashed=1;startFill=0;endArrow=none;endFill=0;strokeColor=#6c8ebf;fillColor=#dae8fc;exitX=1;exitY=1;exitDx=0;exitDy=0;" edge="1" source="_lwCmBiX-WVCBk8Of-Vi-49" target="_lwCmBiX-WVCBk8Of-Vi-56" parent="_lwCmBiX-WVCBk8Of-Vi-1">
          <mxGeometry relative="1" as="geometry">
            <Array as="points">
              <mxPoint x="126" y="614" />
            </Array>
          </mxGeometry>
        </mxCell>
        <mxCell id="_lwCmBiX-WVCBk8Of-Vi-49" value="1.0.0" style="ellipse;whiteSpace=wrap;html=1;aspect=fixed;fillColor=#dae8fc;strokeColor=#6c8ebf;labelPosition=center;verticalLabelPosition=top;align=center;verticalAlign=bottom;" vertex="1" parent="_lwCmBiX-WVCBk8Of-Vi-1">
          <mxGeometry x="100" y="518" width="30" height="30" as="geometry" />
        </mxCell>
        <mxCell id="_lwCmBiX-WVCBk8Of-Vi-50" value="" style="edgeStyle=orthogonalEdgeStyle;orthogonalLoop=1;jettySize=auto;html=1;dashed=1;startFill=0;endArrow=none;endFill=0;strokeColor=#6c8ebf;fillColor=#dae8fc;" edge="1" source="_lwCmBiX-WVCBk8Of-Vi-67" target="_lwCmBiX-WVCBk8Of-Vi-53" parent="_lwCmBiX-WVCBk8Of-Vi-1">
          <mxGeometry relative="1" as="geometry" />
        </mxCell>
        <mxCell id="_lwCmBiX-WVCBk8Of-Vi-51" value="1.1.0" style="ellipse;whiteSpace=wrap;html=1;aspect=fixed;fillColor=#dae8fc;strokeColor=#6c8ebf;labelPosition=center;verticalLabelPosition=top;align=center;verticalAlign=bottom;" vertex="1" parent="_lwCmBiX-WVCBk8Of-Vi-1">
          <mxGeometry x="210" y="518" width="30" height="30" as="geometry" />
        </mxCell>
        <mxCell id="_lwCmBiX-WVCBk8Of-Vi-52" value="" style="edgeStyle=orthogonalEdgeStyle;orthogonalLoop=1;jettySize=auto;html=1;dashed=1;startFill=0;endArrow=none;endFill=0;strokeColor=#6c8ebf;fillColor=#dae8fc;" edge="1" source="_lwCmBiX-WVCBk8Of-Vi-77" target="_lwCmBiX-WVCBk8Of-Vi-54" parent="_lwCmBiX-WVCBk8Of-Vi-1">
          <mxGeometry relative="1" as="geometry" />
        </mxCell>
        <mxCell id="_lwCmBiX-WVCBk8Of-Vi-53" value="1.2.1" style="ellipse;whiteSpace=wrap;html=1;aspect=fixed;fillColor=#dae8fc;strokeColor=#6c8ebf;labelPosition=right;verticalLabelPosition=top;align=left;verticalAlign=bottom;" vertex="1" parent="_lwCmBiX-WVCBk8Of-Vi-1">
          <mxGeometry x="430" y="518" width="30" height="30" as="geometry" />
        </mxCell>
        <mxCell id="_lwCmBiX-WVCBk8Of-Vi-54" value="develop" style="rounded=0;whiteSpace=wrap;html=1;fontFamily=Helvetica;fontSize=12;fontColor=#000000;align=center;strokeColor=#6c8ebf;fillColor=#dae8fc;" vertex="1" parent="_lwCmBiX-WVCBk8Of-Vi-1">
          <mxGeometry x="790" y="518" width="110" height="30" as="geometry" />
        </mxCell>
        <mxCell id="_lwCmBiX-WVCBk8Of-Vi-55" value="" style="edgeStyle=orthogonalEdgeStyle;orthogonalLoop=1;jettySize=auto;html=1;dashed=1;startFill=0;endArrow=none;endFill=0;strokeColor=#6c8ebf;fillColor=#dae8fc;exitX=1;exitY=1;exitDx=0;exitDy=0;" edge="1" source="_lwCmBiX-WVCBk8Of-Vi-51" target="_lwCmBiX-WVCBk8Of-Vi-66" parent="_lwCmBiX-WVCBk8Of-Vi-1">
          <mxGeometry relative="1" as="geometry">
            <mxPoint x="230" y="548" as="sourcePoint" />
            <Array as="points">
              <mxPoint x="236" y="614" />
            </Array>
          </mxGeometry>
        </mxCell>
        <mxCell id="_lwCmBiX-WVCBk8Of-Vi-56" value="release/1.1.0" style="ellipse;whiteSpace=wrap;html=1;aspect=fixed;fillColor=#e1d5e7;strokeColor=#9673a6;labelPosition=center;verticalLabelPosition=top;align=center;verticalAlign=bottom;fontColor=#9673A6;" vertex="1" parent="_lwCmBiX-WVCBk8Of-Vi-1">
          <mxGeometry x="154" y="599" width="30" height="30" as="geometry" />
        </mxCell>
        <mxCell id="_lwCmBiX-WVCBk8Of-Vi-57" value="PR" style="edgeStyle=orthogonalEdgeStyle;orthogonalLoop=1;jettySize=auto;html=1;exitX=1;exitY=0.5;exitDx=0;exitDy=0;dashed=1;startFill=0;endArrow=none;endFill=0;strokeColor=#6c8ebf;fillColor=#dae8fc;entryX=0;entryY=1;entryDx=0;entryDy=0;fontColor=#9673A6;" edge="1" source="_lwCmBiX-WVCBk8Of-Vi-56" target="_lwCmBiX-WVCBk8Of-Vi-51" parent="_lwCmBiX-WVCBk8Of-Vi-1">
          <mxGeometry x="0.7143" relative="1" as="geometry">
            <mxPoint x="430" y="614" as="sourcePoint" />
            <mxPoint x="240" y="568" as="targetPoint" />
            <Array as="points">
              <mxPoint x="214" y="614" />
            </Array>
            <mxPoint as="offset" />
          </mxGeometry>
        </mxCell>
        <mxCell id="_lwCmBiX-WVCBk8Of-Vi-58" value="" style="edgeStyle=orthogonalEdgeStyle;orthogonalLoop=1;jettySize=auto;html=1;dashed=1;startFill=0;endArrow=none;endFill=0;strokeColor=#6c8ebf;fillColor=#dae8fc;entryX=0;entryY=0.5;entryDx=0;entryDy=0;" edge="1" target="_lwCmBiX-WVCBk8Of-Vi-59" parent="_lwCmBiX-WVCBk8Of-Vi-1">
          <mxGeometry relative="1" as="geometry">
            <mxPoint x="650" y="614" as="sourcePoint" />
          </mxGeometry>
        </mxCell>
        <mxCell id="_lwCmBiX-WVCBk8Of-Vi-59" value="release" style="whiteSpace=wrap;html=1;verticalAlign=middle;strokeColor=#9673a6;fillColor=#e1d5e7;" vertex="1" parent="_lwCmBiX-WVCBk8Of-Vi-1">
          <mxGeometry x="790" y="599" width="110" height="30" as="geometry" />
        </mxCell>
        <mxCell id="_lwCmBiX-WVCBk8Of-Vi-60" value="PR" style="edgeStyle=orthogonalEdgeStyle;orthogonalLoop=1;jettySize=auto;html=1;dashed=1;startFill=0;endArrow=none;endFill=0;strokeColor=#b85450;fillColor=#f8cecc;entryX=0;entryY=0;entryDx=0;entryDy=0;fontColor=#B85450;" edge="1" source="_lwCmBiX-WVCBk8Of-Vi-62" target="_lwCmBiX-WVCBk8Of-Vi-53" parent="_lwCmBiX-WVCBk8Of-Vi-1">
          <mxGeometry x="0.2818" relative="1" as="geometry">
            <mxPoint x="460" y="538" as="targetPoint" />
            <mxPoint as="offset" />
          </mxGeometry>
        </mxCell>
        <mxCell id="_lwCmBiX-WVCBk8Of-Vi-61" style="edgeStyle=orthogonalEdgeStyle;orthogonalLoop=1;jettySize=auto;html=1;dashed=1;startFill=0;endArrow=none;endFill=0;strokeColor=#b85450;fillColor=#f8cecc;entryX=1;entryY=0;entryDx=0;entryDy=0;" edge="1" source="_lwCmBiX-WVCBk8Of-Vi-62" target="_lwCmBiX-WVCBk8Of-Vi-67" parent="_lwCmBiX-WVCBk8Of-Vi-1">
          <mxGeometry relative="1" as="geometry" />
        </mxCell>
        <mxCell id="_lwCmBiX-WVCBk8Of-Vi-62" value="&lt;font color=&quot;#b85450&quot;&gt;hotfix/1.2.1&lt;/font&gt;" style="ellipse;whiteSpace=wrap;html=1;aspect=fixed;fillColor=#f8cecc;labelPosition=center;verticalLabelPosition=top;align=center;verticalAlign=bottom;strokeColor=#B85450;" vertex="1" parent="_lwCmBiX-WVCBk8Of-Vi-1">
          <mxGeometry x="379" y="437" width="30" height="30" as="geometry" />
        </mxCell>
        <mxCell id="_lwCmBiX-WVCBk8Of-Vi-63" value="" style="edgeStyle=orthogonalEdgeStyle;orthogonalLoop=1;jettySize=auto;html=1;dashed=1;startFill=0;endArrow=none;endFill=0;strokeColor=#b85450;fillColor=#f8cecc;" edge="1" target="_lwCmBiX-WVCBk8Of-Vi-64" parent="_lwCmBiX-WVCBk8Of-Vi-1">
          <mxGeometry relative="1" as="geometry">
            <mxPoint x="650" y="454" as="sourcePoint" />
          </mxGeometry>
        </mxCell>
        <mxCell id="_lwCmBiX-WVCBk8Of-Vi-64" value="hotfix" style="whiteSpace=wrap;html=1;verticalAlign=middle;strokeColor=#b85450;fillColor=#f8cecc;" vertex="1" parent="_lwCmBiX-WVCBk8Of-Vi-1">
          <mxGeometry x="790" y="439" width="110" height="30" as="geometry" />
        </mxCell>
        <mxCell id="_lwCmBiX-WVCBk8Of-Vi-65" value="PR" style="edgeStyle=orthogonalEdgeStyle;orthogonalLoop=1;jettySize=auto;html=1;entryX=0;entryY=1;entryDx=0;entryDy=0;dashed=1;startFill=0;endArrow=none;endFill=0;strokeColor=#6c8ebf;fillColor=#dae8fc;fontColor=#9673A6;" edge="1" source="_lwCmBiX-WVCBk8Of-Vi-66" target="_lwCmBiX-WVCBk8Of-Vi-67" parent="_lwCmBiX-WVCBk8Of-Vi-1">
          <mxGeometry x="0.7226" relative="1" as="geometry">
            <mxPoint as="offset" />
          </mxGeometry>
        </mxCell>
        <mxCell id="_lwCmBiX-WVCBk8Of-Vi-66" value="release/1.2.0" style="ellipse;whiteSpace=wrap;html=1;aspect=fixed;fillColor=#e1d5e7;strokeColor=#9673a6;labelPosition=center;verticalLabelPosition=top;align=center;verticalAlign=bottom;fontColor=#9673A6;" vertex="1" parent="_lwCmBiX-WVCBk8Of-Vi-1">
          <mxGeometry x="271" y="599" width="30" height="30" as="geometry" />
        </mxCell>
        <mxCell id="_lwCmBiX-WVCBk8Of-Vi-67" value="1.2.0" style="ellipse;whiteSpace=wrap;html=1;aspect=fixed;fillColor=#dae8fc;strokeColor=#6c8ebf;labelPosition=left;verticalLabelPosition=top;align=right;verticalAlign=bottom;" vertex="1" parent="_lwCmBiX-WVCBk8Of-Vi-1">
          <mxGeometry x="330" y="518" width="30" height="30" as="geometry" />
        </mxCell>
        <mxCell id="_lwCmBiX-WVCBk8Of-Vi-68" value="" style="edgeStyle=orthogonalEdgeStyle;orthogonalLoop=1;jettySize=auto;html=1;dashed=1;startFill=0;endArrow=none;endFill=0;strokeColor=#6c8ebf;fillColor=#dae8fc;" edge="1" source="_lwCmBiX-WVCBk8Of-Vi-51" target="_lwCmBiX-WVCBk8Of-Vi-67" parent="_lwCmBiX-WVCBk8Of-Vi-1">
          <mxGeometry relative="1" as="geometry">
            <mxPoint x="240" y="533" as="sourcePoint" />
            <mxPoint x="570" y="533" as="targetPoint" />
          </mxGeometry>
        </mxCell>
        <mxCell id="_lwCmBiX-WVCBk8Of-Vi-69" style="edgeStyle=orthogonalEdgeStyle;orthogonalLoop=1;jettySize=auto;html=1;entryX=1;entryY=1;entryDx=0;entryDy=0;dashed=1;startFill=0;endArrow=none;endFill=0;fillColor=#dae8fc;strokeColor=#6C8EBF;" edge="1" source="_lwCmBiX-WVCBk8Of-Vi-71" target="_lwCmBiX-WVCBk8Of-Vi-67" parent="_lwCmBiX-WVCBk8Of-Vi-1">
          <mxGeometry relative="1" as="geometry" />
        </mxCell>
        <mxCell id="_lwCmBiX-WVCBk8Of-Vi-70" value="" style="edgeStyle=orthogonalEdgeStyle;orthogonalLoop=1;jettySize=auto;html=1;dashed=1;startFill=0;endArrow=none;endFill=0;fillColor=#f8cecc;fontColor=#B85450;strokeColor=#6C8EBF;" edge="1" source="_lwCmBiX-WVCBk8Of-Vi-71" target="_lwCmBiX-WVCBk8Of-Vi-74" parent="_lwCmBiX-WVCBk8Of-Vi-1">
          <mxGeometry relative="1" as="geometry" />
        </mxCell>
        <mxCell id="_lwCmBiX-WVCBk8Of-Vi-71" value="release/1.3.0" style="ellipse;whiteSpace=wrap;html=1;aspect=fixed;fillColor=#e1d5e7;strokeColor=#9673a6;labelPosition=center;verticalLabelPosition=top;align=center;verticalAlign=bottom;fontColor=#9673A6;" vertex="1" parent="_lwCmBiX-WVCBk8Of-Vi-1">
          <mxGeometry x="390" y="599" width="30" height="30" as="geometry" />
        </mxCell>
        <mxCell id="_lwCmBiX-WVCBk8Of-Vi-72" value="" style="edgeStyle=orthogonalEdgeStyle;orthogonalLoop=1;jettySize=auto;html=1;dashed=1;startFill=0;endArrow=none;endFill=0;fillColor=#f8cecc;fontColor=#B85450;strokeColor=#6C8EBF;" edge="1" source="_lwCmBiX-WVCBk8Of-Vi-74" target="_lwCmBiX-WVCBk8Of-Vi-76" parent="_lwCmBiX-WVCBk8Of-Vi-1">
          <mxGeometry relative="1" as="geometry" />
        </mxCell>
        <mxCell id="_lwCmBiX-WVCBk8Of-Vi-73" value="merge" style="edgeStyle=orthogonalEdgeStyle;orthogonalLoop=1;jettySize=auto;html=1;dashed=1;startFill=0;endArrow=none;endFill=0;fillColor=#dae8fc;strokeColor=#6C8EBF;fontColor=#6C8EBF;" edge="1" source="_lwCmBiX-WVCBk8Of-Vi-74" target="_lwCmBiX-WVCBk8Of-Vi-53" parent="_lwCmBiX-WVCBk8Of-Vi-1">
          <mxGeometry relative="1" as="geometry" />
        </mxCell>
        <mxCell id="_lwCmBiX-WVCBk8Of-Vi-74" value="" style="ellipse;whiteSpace=wrap;html=1;aspect=fixed;fillColor=#e1d5e7;strokeColor=#9673a6;labelPosition=center;verticalLabelPosition=top;align=center;verticalAlign=bottom;fontColor=#9673A6;" vertex="1" parent="_lwCmBiX-WVCBk8Of-Vi-1">
          <mxGeometry x="460" y="599" width="30" height="30" as="geometry" />
        </mxCell>
        <mxCell id="_lwCmBiX-WVCBk8Of-Vi-75" value="PR" style="edgeStyle=orthogonalEdgeStyle;orthogonalLoop=1;jettySize=auto;html=1;entryX=0;entryY=1;entryDx=0;entryDy=0;dashed=1;startFill=0;endArrow=none;endFill=0;strokeColor=#6c8ebf;fillColor=#dae8fc;fontColor=#9673A6;" edge="1" source="_lwCmBiX-WVCBk8Of-Vi-76" target="_lwCmBiX-WVCBk8Of-Vi-77" parent="_lwCmBiX-WVCBk8Of-Vi-1">
          <mxGeometry x="0.6963" relative="1" as="geometry">
            <mxPoint as="offset" />
          </mxGeometry>
        </mxCell>
        <mxCell id="_lwCmBiX-WVCBk8Of-Vi-76" value="release/1.4.0" style="ellipse;whiteSpace=wrap;html=1;aspect=fixed;fillColor=#e1d5e7;strokeColor=#9673a6;labelPosition=center;verticalLabelPosition=top;align=center;verticalAlign=bottom;fontColor=#9673A6;" vertex="1" parent="_lwCmBiX-WVCBk8Of-Vi-1">
          <mxGeometry x="530" y="599" width="30" height="30" as="geometry" />
        </mxCell>
        <mxCell id="_lwCmBiX-WVCBk8Of-Vi-77" value="1.4.0" style="ellipse;whiteSpace=wrap;html=1;aspect=fixed;fillColor=#dae8fc;strokeColor=#6c8ebf;labelPosition=right;verticalLabelPosition=top;align=left;verticalAlign=bottom;" vertex="1" parent="_lwCmBiX-WVCBk8Of-Vi-1">
          <mxGeometry x="580" y="518" width="30" height="30" as="geometry" />
        </mxCell>
        <mxCell id="_lwCmBiX-WVCBk8Of-Vi-78" value="" style="edgeStyle=orthogonalEdgeStyle;orthogonalLoop=1;jettySize=auto;html=1;dashed=1;startFill=0;endArrow=none;endFill=0;strokeColor=#6c8ebf;fillColor=#dae8fc;" edge="1" source="_lwCmBiX-WVCBk8Of-Vi-53" target="_lwCmBiX-WVCBk8Of-Vi-77" parent="_lwCmBiX-WVCBk8Of-Vi-1">
          <mxGeometry relative="1" as="geometry">
            <mxPoint x="460" y="533" as="sourcePoint" />
            <mxPoint x="1010" y="533" as="targetPoint" />
          </mxGeometry>
        </mxCell>
        <mxCell id="_lwCmBiX-WVCBk8Of-Vi-83" value="" style="icon;html=1;image=img/clipart/Gear_128x128.png;strokeColor=#b85450;fillColor=#f8cecc;align=right;" vertex="1" parent="_lwCmBiX-WVCBk8Of-Vi-1">
          <mxGeometry x="365" y="40" width="45" height="50" as="geometry" />
        </mxCell>
        <mxCell id="_lwCmBiX-WVCBk8Of-Vi-84" value="" style="icon;html=1;image=img/clipart/Gear_128x128.png;strokeColor=#b85450;fillColor=#f8cecc;align=right;" vertex="1" parent="_lwCmBiX-WVCBk8Of-Vi-1">
          <mxGeometry x="372.5" y="365" width="45" height="50" as="geometry" />
        </mxCell>
        <mxCell id="_lwCmBiX-WVCBk8Of-Vi-89" value="" style="shape=image;html=1;verticalLabelPosition=bottom;verticalAlign=top;imageAspect=0;image=img/clipart/Gear_128x128.png;strokeColor=#B85450;fillColor=#e1d5e7;fontColor=#6C8EBF;align=right;" vertex="1" parent="_lwCmBiX-WVCBk8Of-Vi-1">
          <mxGeometry x="139" y="320" width="40" height="44" as="geometry" />
        </mxCell>
        <mxCell id="_lwCmBiX-WVCBk8Of-Vi-90" value="" style="shape=image;html=1;verticalLabelPosition=bottom;verticalAlign=top;imageAspect=0;image=img/clipart/Gear_128x128.png;strokeColor=#B85450;fillColor=#e1d5e7;fontColor=#6C8EBF;align=right;" vertex="1" parent="_lwCmBiX-WVCBk8Of-Vi-1">
          <mxGeometry x="256" y="323" width="40" height="44" as="geometry" />
        </mxCell>
        <mxCell id="_lwCmBiX-WVCBk8Of-Vi-91" value="" style="shape=image;html=1;verticalLabelPosition=bottom;verticalAlign=top;imageAspect=0;image=img/clipart/Gear_128x128.png;strokeColor=#B85450;fillColor=#e1d5e7;fontColor=#6C8EBF;align=right;" vertex="1" parent="_lwCmBiX-WVCBk8Of-Vi-1">
          <mxGeometry x="515" y="321" width="40" height="44" as="geometry" />
        </mxCell>
        <mxCell id="_lwCmBiX-WVCBk8Of-Vi-92" value="" style="shape=image;html=1;verticalLabelPosition=bottom;verticalAlign=top;imageAspect=0;image=img/clipart/Gear_128x128.png;strokeColor=#B85450;fillColor=#e1d5e7;fontColor=#6C8EBF;align=right;" vertex="1" parent="_lwCmBiX-WVCBk8Of-Vi-1">
          <mxGeometry x="525" y="640" width="40" height="44" as="geometry" />
        </mxCell>
        <mxCell id="_lwCmBiX-WVCBk8Of-Vi-93" value="" style="shape=image;html=1;verticalLabelPosition=bottom;verticalAlign=top;imageAspect=0;image=img/clipart/Gear_128x128.png;strokeColor=#B85450;fillColor=#e1d5e7;fontColor=#6C8EBF;align=right;" vertex="1" parent="_lwCmBiX-WVCBk8Of-Vi-1">
          <mxGeometry x="385" y="640" width="40" height="44" as="geometry" />
        </mxCell>
        <mxCell id="_lwCmBiX-WVCBk8Of-Vi-95" value="" style="shape=image;html=1;verticalLabelPosition=bottom;verticalAlign=top;imageAspect=0;image=img/clipart/Gear_128x128.png;strokeColor=#B85450;fillColor=#e1d5e7;fontColor=#6C8EBF;align=right;" vertex="1" parent="_lwCmBiX-WVCBk8Of-Vi-1">
          <mxGeometry x="266" y="640" width="40" height="44" as="geometry" />
        </mxCell>
        <mxCell id="_lwCmBiX-WVCBk8Of-Vi-97" value="" style="shape=image;html=1;verticalLabelPosition=bottom;verticalAlign=top;imageAspect=0;image=img/clipart/Gear_128x128.png;strokeColor=#B85450;fillColor=#e1d5e7;fontColor=#6C8EBF;align=right;" vertex="1" parent="_lwCmBiX-WVCBk8Of-Vi-1">
          <mxGeometry x="149" y="640" width="40" height="44" as="geometry" />
        </mxCell>
      </root>
    </mxGraphModel>
  </diagram>
</mxfile>
